<svg xmlns="http://www.w3.org/2000/svg" width="1200" height="700" viewBox="0 0 1200 700">
  <rect width="1200" height="700" fill="#0b1220"/>
  <text x="45" y="55" fill="#f8fafc" font-family="Arial" font-size="30" font-weight="bold">Mini SOC Overview</text>
  <text x="45" y="83" fill="#94a3b8" font-family="Arial" font-size="15">DESIGN MOCKUP - replace with live Wazuh dashboard evidence</text>
  <g font-family="Arial">
    <rect x="45" y="115" width="250" height="120" rx="10" fill="#162033" stroke="#334155"/>
    <text x="65" y="145" fill="#94a3b8" font-size="16">Synthetic alerts</text>
    <text x="65" y="205" fill="#38bdf8" font-size="52" font-weight="bold">8</text>
    <rect x="320" y="115" width="250" height="120" rx="10" fill="#162033" stroke="#334155"/>
    <text x="340" y="145" fill="#94a3b8" font-size="16">High severity</text>
    <text x="340" y="205" fill="#fb7185" font-size="52" font-weight="bold">3</text>
    <rect x="595" y="115" width="250" height="120" rx="10" fill="#162033" stroke="#334155"/>
    <text x="615" y="145" fill="#94a3b8" font-size="16">Monitored hosts</text>
    <text x="615" y="205" fill="#4ade80" font-size="52" font-weight="bold">3</text>
    <rect x="870" y="115" width="285" height="120" rx="10" fill="#162033" stroke="#334155"/>
    <text x="890" y="145" fill="#94a3b8" font-size="16">ATT&amp;CK techniques</text>
    <text x="890" y="205" fill="#c084fc" font-size="52" font-weight="bold">8</text>
    <rect x="45" y="265" width="725" height="380" rx="10" fill="#162033" stroke="#334155"/>
    <text x="65" y="300" fill="#f8fafc" font-size="19" font-weight="bold">Alert timeline</text>
    <line x1="85" y1="585" x2="735" y2="585" stroke="#64748b"/>
    <line x1="85" y1="335" x2="85" y2="585" stroke="#64748b"/>
    <polyline points="100,555 180,545 260,470 340,520 420,390 500,445 580,350 660,430 720,325"
      fill="none" stroke="#38bdf8" stroke-width="5"/>
    <g fill="#38bdf8">
      <circle cx="100" cy="555" r="6"/><circle cx="180" cy="545" r="6"/>
      <circle cx="260" cy="470" r="6"/><circle cx="340" cy="520" r="6"/>
      <circle cx="420" cy="390" r="6"/><circle cx="500" cy="445" r="6"/>
      <circle cx="580" cy="350" r="6"/><circle cx="660" cy="430" r="6"/>
      <circle cx="720" cy="325" r="6"/>
    </g>
    <rect x="795" y="265" width="360" height="380" rx="10" fill="#162033" stroke="#334155"/>
    <text x="815" y="300" fill="#f8fafc" font-size="19" font-weight="bold">Top detections</text>
    <g font-size="15">
      <text x="820" y="350" fill="#cbd5e1">SSH authentication failures</text>
      <rect x="820" y="365" width="270" height="13" fill="#f59e0b"/>
      <text x="820" y="420" fill="#cbd5e1">TCP port sweep</text>
      <rect x="820" y="435" width="225" height="13" fill="#38bdf8"/>
      <text x="820" y="490" fill="#cbd5e1">PowerShell flags</text>
      <rect x="820" y="505" width="170" height="13" fill="#fb7185"/>
      <text x="820" y="560" fill="#cbd5e1">Web attack indicators</text>
      <rect x="820" y="575" width="125" height="13" fill="#c084fc"/>
    </g>
  </g>
</svg>

